Another Fine Release Brought to you from - IMAGiNE 


****************************************************************************************************

**************** 
The Sorcerers Apprentice 2010 DVDRiP AC3 XViD - IMAGiNE 
****************************************************************************************************

****************

Ripper ...........: IMAGiNE IMDB Rating.......:6.3/10 


Video Codec.......: XVID Release Date......:14/07/10
Audio Codec.......:AC-3 Theatre Date......:18/07/10
Audio Bitrate.....:384 Runtime.......:1h 49mn
Subtitles.........: Language..........:ENGLISH
Resolution........: 720 x 304 IMDb 

URL..........:http://www.imdb.com/title/tt0963966/


 
Video
Format : MPEG-4 Visual
Format profile : Streaming Video@L1
Format settings, BVOP : Yes
Format settings, QPel : No
Format settings, GMC : No warppoints
Format settings, Matrix : Default
Muxing mode : Packed bitstream
Codec ID : XVID
Codec ID/Hint : XviD
Duration : 1h 49mn
Bit rate : 1 405 Kbps
Width : 720 pixels
Height : 304 pixels
Display aspect ratio : 2.35
Frame rate : 23.976 fps
Resolution : 24 bits
Colorimetry : 4:2:0
Scan type : Progressive
Bits/(Pixel*Frame) : 0.268
Stream size : 1.07 GiB (78%)
Writing library : XviD 1.1.2 (UTC 2006-11-01)

Audio
Format : AC-3
Format/Info : Audio Coding 3
Codec ID : 2000
Duration : 1h 49mn
Bit rate mode : Constant
Bit rate : 384 Kbps
Channel(s) : 6 channels
Channel positions : Front: L C R, Surround: L R, LFE
Sampling rate : 48.0 KHz
Stream size : 299 MiB (21%)
Alignment : Aligned on interleaves
Interleave, duration : 42 ms (1.00 video frame)
Interleave, preload duration : 512 ms






SOURCES:

VIDEO:Replica.... Thanks
AUDIO:Replica.... Thanks

NOTES:

IMAGiNE bringing you another release..........The Sorcerers Apprentice 2010 DVDRiP AC3 XViD 

Right for this,we just done a quick rip of the russian dvd9 and added a few tweaks here and there 

The source looked dull,lacked colour mainly ......other not too bad.

So we made script to give it some life and colour and also needed to use the rgb eq to balance the 

colours and a white balance.....also added the normal stuff like crop,resize,sharpness etc.....

The audio we just muxed off the dvd9 as it came with both a english and russian audio track












================================== 
http://thepiratebay.org/user/hiest
==================================












Screenshots:
 
http://img99.imageshack.us/img99/2831/73112330.png
 
http://img217.imageshack.us/img217/8186/49348710.png
 
http://img221.imageshack.us/img221/9782/20590099.png
 
http://img301.imageshack.us/img301/4646/10867235.png
